<svg xmlns="http://www.w3.org/2000/svg" width="64" height="64" viewBox="0 0 64 64">
  <defs>
    <linearGradient id="bg" x1="0" y1="0" x2="1" y2="1">
      <stop offset="0" stop-color="#111827"/>
      <stop offset="1" stop-color="#0b1220"/>
    </linearGradient>
  </defs>
  <rect width="64" height="64" rx="14" fill="url(#bg)"/>

  <!-- Santa hat -->
  <path d="M14 28 C20 14, 42 10, 50 24 C42 22, 30 26, 14 28 Z" fill="#ef4444"/>
  <circle cx="52" cy="24" r="5" fill="#f9fafb"/>
  <rect x="14" y="28" width="38" height="7" rx="4" fill="#f9fafb"/>

  <!-- Face -->
  <rect x="18" y="32" width="28" height="22" rx="10" fill="#fde68a"/>

  <!-- Eyebrows (angry) -->
  <path d="M24 39 L30 37" stroke="#111827" stroke-width="3" stroke-linecap="round"/>
  <path d="M40 39 L34 37" stroke="#111827" stroke-width="3" stroke-linecap="round"/>

  <!-- Eyes -->
  <circle cx="27" cy="42" r="2" fill="#111827"/>
  <circle cx="37" cy="42" r="2" fill="#111827"/>

  <!-- Angry mouth -->
  <path d="M26 49 C30 46, 34 46, 38 49" stroke="#111827" stroke-width="3" stroke-linecap="round" fill="none"/>

  <!-- Beard -->
  <path d="M18 48 C20 58, 44 58, 46 48 C44 52, 20 52, 18 48 Z" fill="#f9fafb"/>
</svg>


